<svg id="c-06-cross-symbol-blur" width="16" height="16" viewBox="0 0 16 16" fill="none" xmlns="http://www.w3.org/2000/svg">
                      <path fill-rule="evenodd" clip-rule="evenodd" d="M7.99583 0C3.57967 0 0 3.58154 0 8C0 12.4185 3.57967 16 7.99583 16C12.412 16 15.9917 12.4185 15.9917 8C15.9917 3.58154 12.412 0 7.99583 0ZM6.58529 5.71897C6.52898 5.65851 6.46108 5.61002 6.38563 5.57639C6.31018 5.54275 6.22873 5.52466 6.14615 5.52321C6.06356 5.52175 5.98153 5.53695 5.90495 5.5679C5.82836 5.59885 5.75879 5.64492 5.70038 5.70335C5.64198 5.76179 5.59593 5.8314 5.565 5.90802C5.53407 5.98465 5.51887 6.06672 5.52033 6.14935C5.52179 6.23198 5.53986 6.31347 5.57348 6.38895C5.6071 6.46444 5.65557 6.53238 5.716 6.58872L7.12654 8L5.716 9.41128C5.65557 9.46762 5.6071 9.53556 5.57348 9.61105C5.53986 9.68653 5.52179 9.76802 5.52033 9.85065C5.51887 9.93328 5.53407 10.0154 5.565 10.092C5.59593 10.1686 5.64198 10.2382 5.70038 10.2966C5.75879 10.3551 5.82836 10.4012 5.90495 10.4321C5.98153 10.4631 6.06356 10.4783 6.14615 10.4768C6.22873 10.4753 6.31018 10.4572 6.38563 10.4236C6.46108 10.39 6.52898 10.3415 6.58529 10.281L7.99583 8.86974L9.40638 10.281C9.46269 10.3415 9.53059 10.39 9.60604 10.4236C9.68149 10.4572 9.76293 10.4753 9.84552 10.4768C9.92811 10.4783 10.0101 10.4631 10.0867 10.4321C10.1633 10.4012 10.2329 10.3551 10.2913 10.2966C10.3497 10.2382 10.3957 10.1686 10.4267 10.092C10.4576 10.0154 10.4728 9.93328 10.4713 9.85065C10.4699 9.76802 10.4518 9.68653 10.4182 9.61105C10.3846 9.53556 10.3361 9.46762 10.2757 9.41128L8.86513 8L10.2757 6.58872C10.3361 6.53238 10.3846 6.46444 10.4182 6.38895C10.4518 6.31347 10.4699 6.23198 10.4713 6.14935C10.4728 6.06672 10.4576 5.98465 10.4267 5.90802C10.3957 5.8314 10.3497 5.76179 10.2913 5.70335C10.2329 5.64492 10.1633 5.59885 10.0867 5.5679C10.0101 5.53695 9.92811 5.52175 9.84552 5.52321C9.76293 5.52466 9.68149 5.54275 9.60604 5.57639C9.53059 5.61002 9.46269 5.65851 9.40638 5.71897L7.99583 7.13026L6.58529 5.71897Z" fill="#B5B5B5"></path>
                    </svg>