<svg width="17" height="16" viewBox="0 0 17 16" fill="none" xmlns="http://www.w3.org/2000/svg">
                    <path d="M8.18215 0C3.771 0 0.18219 3.58872 0.18219 7.99996C0.18219 12.4112 3.771 16 8.18215 16C12.5933 16 16.1821 12.4112 16.1821 7.99996C16.1821 3.58872 12.5934 0 8.18215 0ZM12.7759 6.6487L7.7499 11.6747C7.53619 11.8884 7.25212 12.006 6.94993 12.006C6.64774 12.006 6.36366 11.8884 6.14996 11.6747L3.58843 9.11314C3.37473 8.89944 3.25702 8.61536 3.25702 8.31317C3.25702 8.01089 3.37473 7.72682 3.58843 7.51311C3.80205 7.29941 4.08613 7.18171 4.3884 7.18171C4.69059 7.18171 4.97475 7.29941 5.18837 7.5132L6.94984 9.27459L11.1758 5.04867C11.3895 4.83497 11.6735 4.71735 11.9757 4.71735C12.2779 4.71735 12.562 4.83497 12.7757 5.04867C13.217 5.48994 13.217 6.2076 12.7759 6.6487Z" fill="#47C4C0"></path>
                  </svg>